<mxfile host="65bd71144e">
    <diagram id="X2Xo_D-A4ZEQzcFOFIKT" name="Page-1">
        <mxGraphModel dx="1674" dy="827" grid="0" gridSize="10" guides="1" tooltips="1" connect="1" arrows="1" fold="1" page="0" pageScale="1" pageWidth="850" pageHeight="1100" math="0" shadow="0">
            <root>
                <mxCell id="0"/>
                <mxCell id="1" parent="0"/>
                <mxCell id="21" style="edgeStyle=none;html=1;exitX=0.831;exitY=0.976;exitDx=0;exitDy=0;exitPerimeter=0;" edge="1" parent="1" source="17" target="20">
                    <mxGeometry relative="1" as="geometry">
                        <mxPoint x="619" y="654" as="sourcePoint"/>
                    </mxGeometry>
                </mxCell>
                <mxCell id="17" value="Quyền" style="rounded=1;arcSize=10;whiteSpace=wrap;html=1;align=center;" vertex="1" parent="1">
                    <mxGeometry x="545" y="605" width="89" height="41" as="geometry"/>
                </mxCell>
                <mxCell id="19" style="edgeStyle=none;html=1;" edge="1" parent="1" source="18" target="17">
                    <mxGeometry relative="1" as="geometry"/>
                </mxCell>
                <mxCell id="18" value="Project" style="rounded=1;arcSize=10;whiteSpace=wrap;html=1;align=center;" vertex="1" parent="1">
                    <mxGeometry x="238.5" y="248" width="89" height="41" as="geometry"/>
                </mxCell>
                <mxCell id="20" value="Người dùng" style="rounded=1;arcSize=10;whiteSpace=wrap;html=1;align=center;" vertex="1" parent="1">
                    <mxGeometry x="818" y="425" width="100" height="40" as="geometry"/>
                </mxCell>
                <mxCell id="22" value="Nguời dùng sẽ có&amp;nbsp; các quyền trên project&lt;br&gt;Quyền xem&lt;br&gt;Quyền Sửa&lt;br&gt;Quyền Xoá&lt;br&gt;&lt;br&gt;1Project sẽ có hệ thống phân quyền&lt;br&gt;1 project sẽ có các quyền và các quyền và mỗi người&lt;br&gt;sẽ có các quyền ứng với project&amp;nbsp;&lt;br&gt;&lt;br&gt;-&amp;gt; quyền-user-project - 1 -2 -3 -4" style="text;html=1;align=center;verticalAlign=middle;resizable=0;points=[];autosize=1;strokeColor=none;fillColor=none;" vertex="1" parent="1">
                    <mxGeometry x="132" y="440" width="302" height="156" as="geometry"/>
                </mxCell>
            </root>
        </mxGraphModel>
    </diagram>
</mxfile>